:SAMPLES-PER-SECOND 30
:FULLY-SPECIFIED
:DEGREES
216
root  -6.56147 39.6665 10.7045 -11.4252 -69.4664 12.1037
RightUpLeg  8.00869 6.18587 -2.5411
RightLeg  35.6087 12.2241 9.02006
RightFoot  43.2695 -10.0658 19.9893
RightToes  -1.33073e-015 0 -3.6325e-017
Spine  -19.713 16.4103 30.8145
Spine1  10.1247 16.3704 -21.5399
HEad  13.1258 -44.1974 -4.02699
LeftShoulder1  6.99156 -14.7714 -32.2377
LeftArm  -16.4227 -7.09474 -39.7597
LeftForeArm  34.4667 -70.6363 -29.8113
LeftHand  -0.246645 0.021 5.37786
RightShoulder  5.46247 13.991 25.0866
RightArm  67.2082 45.4985 99.4076
RightForeArm  44.5778 47.8451 9.13626
RightHand  -0.24729 -0.0210522 -5.37781
LeftUpLeg  -10.7064 -6.55339 -9.28418
LeftLeg  32.7686 -67.0378 -31.5889
LeftFoot  8.20118 0.465714 -2.99476
LeftToes  5.09284e-011 3.02203e-011 3.83118e-011
217
root  -6.56458 39.6821 10.6936 -12.2337 -70.7479 12.8061
RightUpLeg  7.90688 6.56045 -2.77307
RightLeg  35.8121 11.9934 8.91536
RightFoot  43.3261 -9.82595 19.5117
RightToes  -1.33073e-015 0 -3.6325e-017
Spine  -20.1561 15.7569 30.3362
Spine1  10.7221 15.5485 -20.6316
HEad  13.1424 -42.6031 -3.62356
LeftShoulder1  7.33017 -15.1186 -33.3397
LeftArm  -13.7709 -3.71632 -40.43
LeftForeArm  31.0857 -69.9419 -28.9949
LeftHand  -0.246645 0.021 5.37786
RightShoulder  5.68366 14.0688 26.256
RightArm  64.3747 43.2007 95.3153
RightForeArm  42.9453 47.26 9.02963
RightHand  -0.24729 -0.0210522 -5.37781
LeftUpLeg  -10.5886 -6.44865 -9.15145
LeftLeg  31.3358 -66.0968 -30.0049
LeftFoot  7.99172 0.379502 -2.51414
LeftToes  5.09284e-011 3.02203e-011 3.83118e-011
218
root  -6.56981 39.6984 10.6812 -13.1543 -72.1267 13.5561
RightUpLeg  7.86981 6.9662 -2.97169
RightLeg  35.9937 11.694 8.74978
RightFoot  43.3319 -9.54716 18.9802
RightToes  -1.33073e-015 0 -3.6325e-017
Spine  -20.4202 15.033 29.9896
Spine1  11.302 14.7233 -19.9081
HEad  13.0375 -40.8974 -2.75453
LeftShoulder1  7.50447 -15.3077 -33.8631
LeftArm  -10.849 -0.657205 -41.2563
LeftForeArm  26.9585 -68.8744 -27.6837
LeftHand  -0.246645 0.021 5.37786
RightShoulder  5.84744 14.1058 27.1509
RightArm  61.9323 40.8957 91.8021
RightForeArm  40.9922 46.4898 8.88164
RightHand  -0.24729 -0.0210522 -5.37781
LeftUpLeg  -10.4227 -6.37326 -8.96899
LeftLeg  29.922 -64.9969 -28.4106
LeftFoot  7.72305 0.302843 -2.08416
LeftToes  5.09284e-011 3.02203e-011 3.83118e-011
219
root  -6.56829 39.7164 10.6693 -14.3763 -73.7242 14.5891
RightUpLeg  7.78409 7.50422 -3.22045
RightLeg  36.1998 11.3412 8.5485
RightFoot  43.298 -9.34916 18.6168
RightToes  -1.33073e-015 0 -3.6325e-017
Spine  -20.7208 14.3761 29.4593
Spine1  12.1667 13.943 -18.8311
HEad  12.907 -39.3978 -1.93793
LeftShoulder1  7.66989 -15.5016 -34.32
LeftArm  -7.63415 1.86968 -41.9663
LeftForeArm  22.0327 -67.4165 -26.0228
LeftHand  -0.246645 0.021 5.37786
RightShoulder  5.95368 14.1127 27.761
RightArm  59.705 38.68 88.558
RightForeArm  38.5051 45.5308 8.70884
RightHand  -0.24729 -0.0210522 -5.37781
LeftUpLeg  -10.2362 -6.19028 -8.75233
LeftLeg  28.4575 -63.8115 -26.7684
LeftFoot  7.42249 0.244325 -1.75273
LeftToes  5.09284e-011 3.02203e-011 3.83118e-011
220
root  -6.56155 39.733 10.6559 -16.1841 -75.5509 16.2493
RightUpLeg  7.57022 8.36913 -3.51272
RightLeg  36.471 11.1645 8.49753
RightFoot  43.2521 -9.26655 18.4767
RightToes  -1.33073e-015 0 -3.6325e-017
Spine  -20.9765 13.7962 28.8141
Spine1  13.1324 13.2271 -17.6129
HEad  12.702 -38.2041 -1.30372
LeftShoulder1  7.76827 -15.6121 -34.5969
LeftArm  -4.09532 3.83091 -42.6751
LeftForeArm  16.6662 -65.6236 -24.202
LeftHand  -0.246645 0.021 5.37786
RightShoulder  6.04552 14.1383 28.2467
RightArm  57.5768 36.4592 85.5254
RightForeArm  35.5918 44.5224 8.55566
RightHand  -0.24729 -0.0210522 -5.37781
LeftUpLeg  -10.1 -5.93416 -8.54438
LeftLeg  27.031 -62.4893 -25.1602
LeftFoot  7.10794 0.172712 -1.32986
LeftToes  5.09284e-011 3.02203e-011 3.83118e-011
221
root  -6.55995 39.7442 10.6428 -18.9019 -77.5171 18.8138
RightUpLeg  7.30395 9.4627 -3.85706
RightLeg  36.8083 11.3166 8.71869
RightFoot  43.2389 -9.21409 18.3817
RightToes  -1.33073e-015 0 -3.6325e-017
Spine  -21.0159 13.2102 28.1485
Spine1  13.9271 12.5295 -16.4827
HEad  12.4201 -37.1795 -0.756657
LeftShoulder1  7.72874 -15.5501 -34.5227
LeftArm  -0.186542 5.34134 -43.543
LeftForeArm  11.0569 -63.5837 -22.4068
LeftHand  -0.246645 0.021 5.37786
RightShoulder  6.13552 14.1957 28.6547
RightArm  55.4669 34.1378 82.738
RightForeArm  32.4457 43.5608 8.44184
RightHand  -0.24729 -0.0210522 -5.37781
LeftUpLeg  -9.97862 -5.71647 -8.36953
LeftLeg  25.7519 -60.9123 -23.6585
LeftFoot  6.76179 0.0737937 -0.721304
LeftToes  5.09284e-011 3.02203e-011 3.83118e-011
222
root  -6.5653 39.7525 10.6355 -22.7822 -79.562 22.4866
RightUpLeg  7.03287 10.4505 -4.2957
RightLeg  37.1994 11.6087 9.06944
RightFoot  43.2726 -9.0803 18.1145
RightToes  -1.33073e-015 0 -3.6325e-017
Spine  -20.8263 12.5977 27.553
Spine1  14.5418 11.839 -15.486
HEad  12.1546 -36.1301 -0.254698
LeftShoulder1  7.59788 -15.3829 -34.1948
LeftArm  4.04334 6.4913 -44.5203
LeftForeArm  4.99677 -61.4141 -20.8112
LeftHand  -0.246645 0.021 5.37786
RightShoulder  6.21832 14.2673 28.9887
RightArm  53.4796 31.82 80.2074
RightForeArm  29.0932 42.4844 8.31107
RightHand  -0.24729 -0.0210522 -5.37781
LeftUpLeg  -9.80023 -5.49802 -8.18138
LeftLeg  24.5826 -59.1482 -22.2309
LeftFoot  6.36722 -0.0148919 -0.153307
LeftToes  5.09284e-011 3.02203e-011 3.83118e-011
